<?xml version="1.0" encoding="UTF-8"?>
<svg version="1.1" xmlns="http://www.w3.org/2000/svg" width="2790" height="1504">
<path d="M0 0 C920.7 0 1841.4 0 2790 0 C2790 496.32 2790 992.64 2790 1504 C1869.3 1504 948.6 1504 0 1504 C0 1007.68 0 511.36 0 0 Z " fill="#E0E0DF" transform="translate(0,0)"/>
<path d="M0 0 C2.14655035 -0.0051748 4.29309877 -0.01120319 6.43964458 -0.0180068 C12.31363903 -0.03406552 18.1875845 -0.03772138 24.0615983 -0.03920174 C30.40684207 -0.04291711 36.75206084 -0.05801895 43.09729004 -0.07147217 C57.68374708 -0.09999501 72.27019406 -0.11168464 86.85667413 -0.12085606 C94.0753151 -0.12553804 101.29395292 -0.13274445 108.51259142 -0.14024681 C133.25546719 -0.16591016 157.99834123 -0.18734841 182.74123001 -0.19425201 C184.29259107 -0.19469527 185.84395213 -0.19513884 187.39531319 -0.19558272 C188.95027386 -0.19602399 190.50523453 -0.19646495 192.06019521 -0.19690561 C195.17935133 -0.19779068 198.29850745 -0.19868492 201.41766357 -0.19958496 C202.57770566 -0.19991313 202.57770566 -0.19991313 203.76118293 -0.20024794 C228.81755675 -0.2075035 253.87381465 -0.23932642 278.93014411 -0.28596569 C305.46312915 -0.33526266 331.99604801 -0.36260236 358.52908015 -0.36498785 C361.44706775 -0.36533072 364.36505533 -0.36576156 367.28304291 -0.36625671 C368.00145738 -0.36636825 368.71987185 -0.36647979 369.46005646 -0.36659471 C380.97416072 -0.36888694 392.48814508 -0.39085562 404.00220899 -0.42003082 C415.59637473 -0.44889884 427.19035313 -0.45465648 438.78454891 -0.43915087 C445.05406119 -0.43137542 451.32317385 -0.43301109 457.59263611 -0.46126556 C506.22572723 -0.66801979 506.22572723 -0.66801979 525.78778076 6.28088379 C527.01772388 6.69101463 528.24766701 7.10114548 529.51488113 7.52370453 C541.49359716 11.77873589 553.16601638 20.09330693 562.78778076 28.28088379 C563.59473389 28.95506348 564.40168701 29.62924316 565.23309326 30.32385254 C571.51960565 35.75486095 576.7547039 41.68321749 581.78778076 48.28088379 C582.39364014 49.05947754 582.99949951 49.83807129 583.62371826 50.64025879 C601.06829005 74.16280356 605.26137851 101.59923186 605.17546082 130.1577301 C605.17964083 132.43631468 605.185122 134.71489717 605.19178063 136.99347585 C605.20616662 143.21384448 605.20201194 149.43407983 605.19461381 155.65445554 C605.19035577 161.68727967 605.20020982 167.72007143 605.20952143 173.75288587 C605.22913275 186.84518898 605.23154626 199.93745239 605.22632623 213.02976669 C605.22175883 224.4918239 605.22238094 235.95386545 605.22816658 247.41592216 C605.22892347 248.95687377 605.22967945 250.49782537 605.23043453 252.03877698 C605.2315798 254.36124028 605.23272968 256.68370359 605.23389377 259.00616689 C605.24459075 280.58423413 605.24933247 302.16229619 605.24142361 323.74036503 C605.24097785 324.95910634 605.24097785 324.95910634 605.24052308 326.20246869 C605.23807447 332.79931125 605.23546272 339.39615375 605.23283895 345.99299625 C605.22274265 371.70771731 605.23108346 397.42237302 605.2543335 423.13708496 C605.2804523 452.07104281 605.2932414 481.00496134 605.28614575 509.93893141 C605.28542976 513.02899928 605.28475536 516.11906716 605.2841053 519.20913506 C605.28393549 519.96990861 605.28376568 520.73068217 605.28359073 521.51450947 C605.28129527 532.95956347 605.28922877 544.40458077 605.30239677 555.84962654 C605.31736256 568.87993667 605.31807885 581.91016124 605.30032586 594.94046963 C605.29164983 601.58040181 605.2896011 608.22020649 605.30497742 614.86013985 C605.31891425 620.95426617 605.31394663 627.04809134 605.29473818 633.14220064 C605.29100522 635.33120242 605.29382069 637.52022886 605.30434983 639.7092085 C605.45700217 673.91374373 598.04621227 704.74477326 575.78778076 731.28088379 C575.12004639 732.10072754 574.45231201 732.92057129 573.76434326 733.76525879 C562.66273966 746.90593244 546.84844656 758.05975632 530.78778076 764.28088379 C529.57219482 764.78361816 528.35660889 765.28635254 527.10418701 765.80432129 C519.39384217 768.86511752 511.81436583 770.84974535 503.5885582 771.93634129 C502.63358558 772.06329312 501.67861296 772.19024496 500.69470178 772.32104382 C490.38719784 773.59256779 480.15944927 773.70247618 469.7878418 773.66856384 C467.66565762 773.67274906 465.54347568 773.67823301 463.42129779 773.68488365 C457.65670153 773.69920033 451.89224992 773.69513724 446.12764621 773.68771684 C439.88494487 773.6829532 433.64227341 773.6955228 427.39958191 773.70573425 C415.9008089 773.72187609 404.40209919 773.72438154 392.90332023 773.71942926 C382.27954279 773.71485652 371.65578223 773.71549064 361.03200531 773.72126961 C359.60212397 773.7220265 358.17224263 773.72278248 356.74236129 773.72353755 C354.5872164 773.72468284 352.43207152 773.72583273 350.27692664 773.7269968 C330.26889204 773.73768534 310.26086301 773.7424436 290.25282669 773.73452663 C289.50022566 773.73422946 288.74762463 773.73393229 287.97221751 773.73362611 C281.8620872 773.73117762 275.75195695 773.72856581 269.64182672 773.72594198 C245.79933805 773.7158349 221.95691978 773.72421039 198.11444092 773.74743652 C171.27646165 773.77353895 144.43852473 773.78634981 117.60053229 773.77924877 C114.73645259 773.77853279 111.87237287 773.77785839 109.00829315 773.77720833 C108.30317358 773.77703852 107.598054 773.77686871 106.87156717 773.77669376 C96.25569347 773.77439659 85.63985929 773.78233945 75.02399445 773.7954998 C62.94809671 773.81044419 50.87231628 773.8108367 38.79641232 773.79342889 C32.64120783 773.78493086 26.48617932 773.7827405 20.33098412 773.79808044 C14.68701523 773.81197188 9.04337238 773.8071071 3.39942214 773.78784121 C1.36747237 773.78409471 -0.66450379 773.78696378 -2.69642994 773.79745286 C-37.11727665 773.96238071 -68.0354981 761.46223359 -92.58721924 737.28088379 C-97.79713289 732.00469163 -102.36922793 726.65090412 -106.21221924 720.28088379 C-106.86577393 719.21354004 -107.51932861 718.14619629 -108.19268799 717.04650879 C-114.5901747 706.36648159 -119.52157648 695.31061385 -122.96221924 683.34338379 C-123.26035522 682.32583008 -123.26035522 682.32583008 -123.56451416 681.28771973 C-127.53368747 666.67680659 -127.49989547 651.91546914 -127.46618652 636.90115356 C-127.46849416 634.65230629 -127.47167271 632.40345977 -127.47564101 630.15461481 C-127.48395614 624.00744706 -127.47987867 617.86034177 -127.47366858 611.71317387 C-127.46959826 605.75415774 -127.47494524 599.79515182 -127.47996331 593.83613806 C-127.49046936 580.90342038 -127.48959209 567.97072252 -127.48380548 555.03800298 C-127.47876599 543.71882864 -127.47746486 532.39966154 -127.47985077 521.0804863 C-127.48000354 520.32842552 -127.48015631 519.57636474 -127.48031371 518.80151424 C-127.48093643 515.74830876 -127.48157324 512.69510328 -127.48223324 509.6418978 C-127.48834588 481.02287635 -127.48281303 452.40386748 -127.47203944 423.78484797 C-127.46255077 398.3860589 -127.46339649 372.98728988 -127.47296143 347.58850098 C-127.48368291 319.02342877 -127.48791037 290.45836768 -127.4817369 261.89329374 C-127.48109551 258.84516677 -127.48046983 255.79703979 -127.47985077 252.74891281 C-127.47969261 251.9984395 -127.47953446 251.24796618 -127.47937151 250.47475125 C-127.47710142 239.16702903 -127.47974809 227.85931488 -127.48480988 216.55159378 C-127.49054042 203.68611164 -127.48907326 190.82065234 -127.47824839 177.95517303 C-127.47291015 171.395139 -127.4709128 164.83513718 -127.47754669 158.27510262 C-127.48353521 152.26214234 -127.48018334 146.24926009 -127.46959159 140.23630683 C-127.46736981 138.06890392 -127.46846614 135.90149433 -127.47334316 133.73409577 C-127.55263935 95.54445515 -118.62511212 61.59298924 -91.21221924 33.84338379 C-65.57310132 8.72776959 -34.87931285 -0.03379266 0 0 Z " fill="#010101" transform="translate(1169.2122192382813,366.7191162109375)"/>
<path d="M0 0 C48.7575 -0.0825 97.515 -0.165 147.75 -0.25 C170.87529785 -0.30462402 170.87529785 -0.30462402 194.46777344 -0.36035156 C213.23876953 -0.37841797 213.23876953 -0.37841797 222.01568604 -0.3817749 C228.16890535 -0.38551384 234.32198037 -0.40022339 240.47515869 -0.42230225 C247.56632099 -0.4477093 254.65734427 -0.45935659 261.74855246 -0.4537798 C265.37842471 -0.45136321 269.00798601 -0.45527525 272.63780165 -0.47686052 C276.51921273 -0.49980239 280.40020554 -0.49200898 284.28167725 -0.48101807 C285.99129324 -0.49849405 285.99129324 -0.49849405 287.73544693 -0.51632309 C288.77482155 -0.5083596 289.81419617 -0.50039612 290.88506699 -0.49219131 C291.78272585 -0.4937102 292.68038471 -0.49522908 293.60524535 -0.49679399 C296.79179971 0.16425955 297.99442809 1.4899554 300 4 C300.53125 6.8046875 300.53125 6.8046875 300.5 9.875 C300.51546875 11.38707031 300.51546875 11.38707031 300.53125 12.9296875 C297.06902659 32.93930221 265.5718107 59.98624641 250.03485107 71.52081299 C226.45484224 88.0069551 191.12985476 82.78916501 163.99586523 80.96146929 C152.6886188 80.2137987 141.3683565 79.93140032 130.04243565 79.61342525 C112.33019237 79.10463275 94.70711654 78.0087493 77 77 C77 101.42 77 125.84 77 151 C77.66 151 78.32 151 79 151 C79 150.34 79 149.68 79 149 C81.64315581 146.35047457 83.33973483 145.10595343 87.06716633 144.50780869 C88.22032935 144.51149586 89.37349237 144.51518303 90.56159973 144.51898193 C91.5296845 144.51385538 91.5296845 144.51385538 92.51732653 144.50862527 C94.67192036 144.50205592 96.82525802 144.5240042 98.97973633 144.54589844 C100.5272519 144.54702713 102.07476961 144.54639262 103.62228394 144.54412842 C107.81832306 144.54298119 112.01390442 144.56649169 116.2098372 144.59442425 C120.59671089 144.61943653 124.98359518 144.62177976 129.37052917 144.62652588 C137.67550816 144.63895617 145.98027642 144.67177848 154.28516263 144.71192384 C163.74093347 144.75663989 173.19671439 144.77862817 182.65256464 144.79870558 C202.10183253 144.84051109 221.5508916 144.9116703 241 145 C241 152.92 241 160.84 241 169 C239.16092575 168.93480667 237.3218515 168.86961334 235.42704773 168.80244446 C217.94199788 168.20631629 200.46117049 167.80024543 182.9672575 167.57772541 C173.97581034 167.45867676 164.99495089 167.27522427 156.0090332 166.93237305 C145.63450824 166.54528755 135.26889121 166.32322618 124.88671875 166.36328125 C123.63284622 166.3681183 123.63284622 166.3681183 122.35364294 166.37305307 C101.90551673 166.53907086 85.60396156 167.81075464 70.16108704 182.71098328 C64.5514326 188.65471426 59.53292701 194.97947385 55.07771301 201.82975769 C54.39206772 202.87593765 53.70642242 203.92211761 53 205 C52.67 205 52.34 205 52 205 C52 154.51 52 104.02 52 52 C109.42 52 166.84 52 226 52 C225.67 43.42 225.34 34.84 225 26 C159 25.67 93 25.34 25 25 C25 143.8 25 262.6 25 385 C16.75 385 8.5 385 0 385 C0 257.95 0 130.9 0 0 Z " fill="#FBFBFA" transform="translate(1297,561)"/>
<path d="M0 0 C102.3 0 204.6 0 310 0 C310 8.25 310 16.5 310 25 C215.95 25 121.9 25 25 25 C25 147.43 25 269.86 25 396 C16.75 396 8.5 396 0 396 C0 265.32 0 134.64 0 0 Z " fill="#FAFAFA" transform="translate(1245,509)"/>
<path d="M0 0 C3.90781305 0.12473073 7.81589525 0.12393808 11.725389 0.13891268 C18.26499774 0.1808858 24.79882068 0.30248138 31.33601522 0.48299837 C40.55489212 0.73737381 49.77109929 0.8391706 58.99292541 0.91436887 C66.17815073 0.97880447 73.36281912 1.08676884 80.54744101 1.1983304 C81.31458378 1.20954786 82.08172656 1.22076531 82.87211609 1.23232269 C87.27166115 1.29853257 91.66976448 1.38614715 96.06814718 1.5075078 C98.03259072 1.55777812 99.99748549 1.58932002 101.96232748 1.62032747 C103.13084249 1.65761965 104.29935751 1.69491182 105.50328207 1.73333406 C107.02562554 1.77066432 107.02562554 1.77066432 108.57872343 1.80874872 C111.92952426 2.50922743 113.13870661 3.69431899 115.22712851 6.3623929 C116.5600122 12.20940755 116.67158623 18.03344345 113.45369101 23.2217679 C111.1547246 25.74827706 108.74231271 28.05277664 106.22712851 30.3623929 C105.02087167 31.74204916 103.83172226 33.13695302 102.66462851 34.5498929 C99.7752229 37.8787012 96.62230293 40.67264035 93.26228476 43.51473665 C91.06942743 45.50556489 89.16377021 47.62255876 87.22712851 49.8623929 C84.83424482 52.61951129 82.45598914 55.1361388 79.66462851 57.4873929 C75.36440796 61.12537948 71.39842396 65.0732173 67.41462851 69.0498929 C66.755837 69.70425325 66.0970455 70.35861361 65.41829062 71.03280306 C64.79188681 71.66105989 64.165483 72.28931673 63.52009726 72.93661165 C62.9583077 73.49952913 62.39651815 74.06244661 61.81770468 74.6424222 C60.15803673 76.33410302 60.15803673 76.33410302 58.90652132 78.43982744 C57.22712851 80.3623929 57.22712851 80.3623929 55.17130899 80.85458422 C54.37764524 80.85089705 53.58398148 80.84720987 52.7662673 80.84341097 C51.85530955 80.84892096 50.94435181 80.85443094 50.00578928 80.8601079 C49.00480046 80.84571547 48.00381165 80.83132303 46.97248983 80.81649446 C45.90161218 80.8169766 44.83073452 80.81745874 43.72740602 80.81795549 C40.25432143 80.81496528 36.78209111 80.78448377 33.30915976 80.7530179 C31.16768447 80.74713821 29.02620346 80.74305661 26.88472128 80.74081087 C18.93626947 80.71982261 10.98794064 80.6639779 3.03962851 80.6123929 C-14.71849649 80.5298929 -32.47662149 80.4473929 -50.77287149 80.3623929 C-50.77287149 129.5323929 -50.77287149 178.7023929 -50.77287149 229.3623929 C-59.02287149 229.3623929 -67.27287149 229.3623929 -75.77287149 229.3623929 C-75.77287149 171.9423929 -75.77287149 114.5223929 -75.77287149 55.3623929 C-36.83287149 55.3623929 2.10712851 55.3623929 42.22712851 55.3623929 C42.22712851 46.4523929 42.22712851 37.5423929 42.22712851 28.3623929 C10.21712851 28.3623929 -21.79287149 28.3623929 -54.77287149 28.3623929 C-42.939137 4.69492392 -24.78842316 -0.93783333 0 0 Z " fill="#F9F9F9" transform="translate(1424.7728714942932,754.6376070976257)"/>
<path d="M0 0 C6.6 0 13.2 0 20 0 C16.01612811 4.64785054 12.06191834 9.12016468 7.75 13.4375 C7.22148438 13.97826172 6.69296875 14.51902344 6.1484375 15.07617188 C4.80509873 16.42462488 3.40658109 17.71765287 2 19 C1.34 19 0.68 19 0 19 C0 12.73 0 6.46 0 0 Z " fill="#0C0F11" transform="translate(1544,585)"/>
<path d="M0 0 C6.6 0 13.2 0 20 0 C19.67 0.66 19.34 1.32 19 2 C18.34 2 17.68 2 17 2 C17 2.66 17 3.32 17 4 C15.53125 5.48046875 15.53125 5.48046875 13.5 7.1875 C12.41525391 8.10789062 12.41525391 8.10789062 11.30859375 9.046875 C10.16583984 10.01367188 10.16583984 10.01367188 9 11 C6.85203038 12.90111891 4.70869381 14.80732743 2.56640625 16.71484375 C1 18 1 18 0 18 C0 12.06 0 6.12 0 0 Z " fill="#141413" transform="translate(1488,782)"/>
<path d="M0 0 C18.15 0 36.3 0 55 0 C54.67 1.32 54.34 2.64 54 4 C53.401875 3.814375 52.80375 3.62875 52.1875 3.4375 C49.83591238 2.77906313 49.83591238 2.77906313 47 4 C47 3.34 47 2.68 47 2 C42.38 2 37.76 2 33 2 C32.67 2.66 32.34 3.32 32 4 C30.35 3.34 28.7 2.68 27 2 C27 2.66 27 3.32 27 4 C26.24976563 3.855625 25.49953125 3.71125 24.7265625 3.5625 C18.06513448 2.35438207 11.76628119 1.73054632 5 2 C5 2.66 5 3.32 5 4 C3.02 3.34 1.04 2.68 -1 2 C-0.67 1.34 -0.34 0.68 0 0 Z " fill="#070808" transform="translate(1536,367)"/>
<path d="M0 0 C6.06617934 0.64104832 12.27320974 0.2220582 18.36328125 0.10668945 C19.44222656 0.09573242 20.52117187 0.08477539 21.6328125 0.07348633 C23.09605957 0.04822876 23.09605957 0.04822876 24.58886719 0.02246094 C27.2109375 0.23364258 27.2109375 0.23364258 31.2109375 2.23364258 C12.4009375 2.23364258 -6.4090625 2.23364258 -25.7890625 2.23364258 C-25.7890625 1.57364258 -25.7890625 0.91364258 -25.7890625 0.23364258 C-22.6230329 0.03418271 -19.45624454 -0.1487017 -16.2890625 -0.32885742 C-15.4021875 -0.38493164 -14.5153125 -0.44100586 -13.6015625 -0.4987793 C-8.92908145 -0.75645288 -4.64696937 -0.6978685 0 0 Z " fill="#0E0E0E" transform="translate(1508.7890625,1137.766357421875)"/>
<path d="M0 0 C10.56 0 21.12 0 32 0 C31.67 0.99 31.34 1.98 31 3 C24.15437069 3.72605159 17.31886298 4.14336083 10.4375 4.25 C9.74720703 4.27126953 9.05691406 4.29253906 8.34570312 4.31445312 C3.4708269 4.34820598 3.4708269 4.34820598 1.03515625 2.546875 C0 1 0 1 0 0 Z " fill="#08090A" transform="translate(1183,367)"/>
<path d="M0 0 C0.33 0 0.66 0 1 0 C1.74495733 5.33322566 2.15907434 10.54048168 2.16796875 15.9296875 C2.17129715 16.64609406 2.17462555 17.36250061 2.17805481 18.10061646 C2.18307354 19.59799565 2.18546472 21.09538584 2.18530273 22.59277344 C2.18751459 24.89015563 2.20579107 27.18707587 2.22460938 29.484375 C2.22753929 30.94531087 2.22952677 32.406249 2.23046875 33.8671875 C2.23765427 34.55360321 2.24483978 35.24001892 2.25224304 35.94723511 C2.22886021 40.77113979 2.22886021 40.77113979 0 43 C-0.76173392 38.6835078 -1.16063604 35.25566547 0 31 C-0.66 31 -1.32 31 -2 31 C-1.84402344 30.13117187 -1.68804688 29.26234375 -1.52734375 28.3671875 C-1.33269531 27.21476563 -1.13804688 26.06234375 -0.9375 24.875 C-0.74027344 23.73804688 -0.54304688 22.60109375 -0.33984375 21.4296875 C-0.00055319 18.00558281 -0.32091225 15.35269895 -1 12 C-1 11.01 -1 10.02 -1 9 C-1.20625 8.195625 -1.4125 7.39125 -1.625 6.5625 C-2.05728067 3.60858207 -1.56217417 2.48110015 0 0 Z " fill="#E6E7E3" transform="translate(1040,968)"/>
<path d="M0 0 C2.31 0.33 4.62 0.66 7 1 C7 1.33 7 1.66 7 2 C5.35 2.33 3.7 2.66 2 3 C1.67 14.22 1.34 25.44 1 37 C0.34 37 -0.32 37 -1 37 C-0.99476318 36.23856689 -0.98952637 35.47713379 -0.98413086 34.69262695 C-0.96330475 31.23259308 -0.95032187 27.77257241 -0.9375 24.3125 C-0.92912109 23.11431641 -0.92074219 21.91613281 -0.91210938 20.68164062 C-0.90888672 19.52470703 -0.90566406 18.36777344 -0.90234375 17.17578125 C-0.89710693 16.11270752 -0.89187012 15.04963379 -0.88647461 13.9543457 C-0.91588692 11.02619143 -0.91588692 11.02619143 -1.56469727 8.32104492 C-2.16334492 5.12904086 -1.17387141 2.96920416 0 0 Z " fill="#0E0D0D" transform="translate(1347,611)"/>
<path d="M0 0 C1.65 0.66 3.3 1.32 5 2 C1.75571843 5.24428157 -2.53987691 6.18500605 -6.8125 7.6875 C-8.16698242 8.18733398 -8.16698242 8.18733398 -9.54882812 8.69726562 C-10.42603516 9.00728516 -11.30324219 9.31730469 -12.20703125 9.63671875 C-13.0060083 9.92248779 -13.80498535 10.20825684 -14.62817383 10.50268555 C-17.38649009 11.0810376 -19.2981482 10.71855528 -22 10 C-22 9.34 -22 8.68 -22 8 C-21.01 8 -20.02 8 -19 8 C-18.67 7.34 -18.34 6.68 -18 6 C-18 6.66 -18 7.32 -18 8 C-15.52733235 7.65555119 -15.52733235 7.65555119 -13 7 C-12.67 6.34 -12.34 5.68 -12 5 C-11.01 5 -10.02 5 -9 5 C-8.34 4.34 -7.68 3.68 -7 3 C-4.67724823 2.59952556 -2.34260643 2.2602896 0 2 C0 1.34 0 0.68 0 0 Z " fill="#181918" transform="translate(1700,1126)"/>
<path d="M0 0 C0.33 0.66 0.66 1.32 1 2 C1.66 2.33 2.32 2.66 3 3 C0.93132437 5.20319933 -1.15281794 7.38672975 -3.25 9.5625 C-4.12978516 10.50512695 -4.12978516 10.50512695 -5.02734375 11.46679688 C-5.60097656 12.05654297 -6.17460938 12.64628906 -6.765625 13.25390625 C-7.28930664 13.80377197 -7.81298828 14.3536377 -8.35253906 14.92016602 C-10 16 -10 16 -12.20214844 15.67163086 C-12.79543945 15.44999268 -13.38873047 15.22835449 -14 15 C-13.34 14.34 -12.68 13.68 -12 13 C-12 12.34 -12 11.68 -12 11 C-10 9 -10 9 -8 8.125 C-5.57978596 6.7636296 -5.01381378 5.53453445 -4 3 C-3.34 3 -2.68 3 -2 3 C-2 2.34 -2 1.68 -2 1 C-1.34 0.67 -0.68 0.34 0 0 Z " fill="#F0F0EF" transform="translate(1548,622)"/>
<path d="M0 0 C0 0.66 0 1.32 0 2 C2.97 2.495 2.97 2.495 6 3 C6 3.66 6 4.32 6 5 C0.20052651 4.37392048 -5.33809831 3.32599062 -11 1.9375 C-11.77472656 1.75123047 -12.54945312 1.56496094 -13.34765625 1.37304688 C-15.23270759 0.91923822 -17.1164927 0.46017508 -19 0 C-19 -0.33 -19 -0.66 -19 -1 C-12.27709124 -2.68072719 -6.41587404 -2.56634962 0 0 Z " fill="#CCCBCA" transform="translate(1689,368)"/>
<path d="M0 0 C0.99 0.33 1.98 0.66 3 1 C-1.38516018 8.33143968 -6.11136415 14.80546098 -12 21 C-12.66 20.67 -13.32 20.34 -14 20 C-12.98379995 16.95139986 -12.22608429 16.13333078 -10 14 C-9.67 13.34 -9.34 12.68 -9 12 C-8.34 12 -7.68 12 -7 12 C-6.773125 11.13375 -6.54625 10.2675 -6.3125 9.375 C-4.75974905 5.38221186 -2.85680105 3.15751695 0 0 Z " fill="#181918" transform="translate(1754,1080)"/>
<path d="M0 0 C0.33 0 0.66 0 1 0 C1.01030746 0.5902446 1.02061493 1.1804892 1.03123474 1.78862 C1.13949106 7.93690642 1.25407326 14.08505196 1.37231445 20.2331543 C1.41560199 22.5270696 1.45728142 24.82101583 1.49731445 27.11499023 C1.55516666 30.41399454 1.61881822 33.71284401 1.68359375 37.01171875 C1.70030624 38.03585373 1.71701874 39.05998871 1.73423767 40.11515808 C1.75418289 41.07577652 1.77412811 42.03639496 1.79467773 43.02612305 C1.81022202 43.86773483 1.8257663 44.70934662 1.84178162 45.57646179 C1.92507655 48.06049167 1.92507655 48.06049167 2.70033264 50.62336731 C2.79922287 51.4076561 2.8981131 52.19194489 3 53 C2.01 53.99 1.02 54.98 0 56 C0 37.52 0 19.04 0 0 Z " fill="#1F1F1E" transform="translate(1322,588)"/>
<path d="M0 0 C0 0.66 0 1.32 0 2 C-5.53437318 3.48041359 -10.93721872 4.52767645 -16.625 5.1875 C-17.34945313 5.28224609 -18.07390625 5.37699219 -18.8203125 5.47460938 C-23.10666221 5.98322515 -26.73535391 5.94844653 -31 5 C-31 4.67 -31 4.34 -31 4 C-30.35973877 3.91959473 -29.71947754 3.83918945 -29.05981445 3.75634766 C-26.14312138 3.38611645 -23.22784945 3.00566082 -20.3125 2.625 C-18.80139648 2.43550781 -18.80139648 2.43550781 -17.25976562 2.2421875 C-16.28330078 2.11328125 -15.30683594 1.984375 -14.30078125 1.8515625 C-13.40528564 1.73635254 -12.50979004 1.62114258 -11.5871582 1.50244141 C-8.9341676 1.07141986 -8.9341676 1.07141986 -6.31323242 -0.07666016 C-3.68945265 -1.12395674 -2.60180289 -0.9636307 0 0 Z " fill="#D1D2D0" transform="translate(1692,1135)"/>
<path d="M0 0 C0.33 0 0.66 0 1 0 C1 7.26 1 14.52 1 22 C1.99 21.01 2.98 20.02 4 19 C4.66 19 5.32 19 6 19 C6 19.66 6 20.32 6 21 C6.66 21.33 7.32 21.66 8 22 C6.8572081 23.16964602 5.71068285 24.33564556 4.5625 25.5 C3.92441406 26.1496875 3.28632812 26.799375 2.62890625 27.46875 C1 29 1 29 0 29 C0 19.43 0 9.86 0 0 Z " fill="#E8E8E7" transform="translate(1349,737)"/>
<path d="M0 0 C0.99 0.33 1.98 0.66 3 1 C3 1.99 3 2.98 3 4 C3.66 4 4.32 4 5 4 C6.90318884 6.85478326 7.4619099 8.41941308 8.125 11.6875 C8.29257813 12.49574219 8.46015625 13.30398438 8.6328125 14.13671875 C8.75398438 14.75160156 8.87515625 15.36648438 9 16 C9.66 16 10.32 16 11 16 C10.67 17.32 10.34 18.64 10 20 C7.01595421 16.48401562 4.79865793 13.00335613 2.75 8.875 C2.22921875 7.84117188 1.7084375 6.80734375 1.171875 5.7421875 C0 3 0 3 0 0 Z " fill="#191919" transform="translate(1052,1064)"/>
<path d="M0 0 C0.33 0.66 0.66 1.32 1 2 C1.66 2.33 2.32 2.66 3 3 C-0.3 6.3 -3.6 9.6 -7 13 C-7.99 12.67 -8.98 12.34 -10 12 C-8.69386058 8.08158173 -7.16870152 5.67359191 -4 3 C-3.34 3 -2.68 3 -2 3 C-2 2.34 -2 1.68 -2 1 C-1.34 0.67 -0.68 0.34 0 0 Z " fill="#EEF0EE" transform="translate(1580,590)"/>
<path d="M0 0 C0.99 0.33 1.98 0.66 3 1 C-1.33333333 5.33333333 -5.66666667 9.66666667 -10 14 C-10 12.68 -10 11.36 -10 10 C-9.34 10 -8.68 10 -8 10 C-7.67 7.36 -7.34 4.72 -7 2 C-5.68 1.67 -4.36 1.34 -3 1 C-2.67 1.66 -2.34 2.32 -2 3 C-1.34 2.01 -0.68 1.02 0 0 Z " fill="#EDEDEC" transform="translate(1492,820)"/>
<path d="M0 0 C3.79160297 -0.05786668 7.58309311 -0.09355054 11.375 -0.125 C12.45523437 -0.14175781 13.53546875 -0.15851563 14.6484375 -0.17578125 C15.6796875 -0.18222656 16.7109375 -0.18867188 17.7734375 -0.1953125 C19.20308838 -0.21102295 19.20308838 -0.21102295 20.66162109 -0.22705078 C23 0 23 0 25 2 C19.06 2 13.12 2 7 2 C6.67 2.66 6.34 3.32 6 4 C6 3.34 6 2.68 6 2 C5.38125 2.185625 4.7625 2.37125 4.125 2.5625 C2 3 2 3 0 2 C0 1.34 0 0.68 0 0 Z " fill="#070808" transform="translate(1500,367)"/>
<path d="M0 0 C1.39456452 0.00667256 2.78911118 0.01863093 4.18359375 0.03515625 C4.89451172 0.03966797 5.60542969 0.04417969 6.33789062 0.04882812 C8.09899388 0.06064761 9.86005411 0.07858362 11.62109375 0.09765625 C10.96109375 1.41765625 10.30109375 2.73765625 9.62109375 4.09765625 C8.30109375 4.09765625 6.98109375 4.09765625 5.62109375 4.09765625 C4.63109375 4.42765625 3.64109375 4.75765625 2.62109375 5.09765625 C2.62109375 4.10765625 2.62109375 3.11765625 2.62109375 2.09765625 C1.63109375 2.09765625 0.64109375 2.09765625 -0.37890625 2.09765625 C-0.70890625 3.08765625 -1.03890625 4.07765625 -1.37890625 5.09765625 C-1.70890625 4.10765625 -2.03890625 3.11765625 -2.37890625 2.09765625 C-3.03890625 1.76765625 -3.69890625 1.43765625 -4.37890625 1.09765625 C-3.37890625 0.09765625 -3.37890625 0.09765625 0 0 Z " fill="#F4F4F2" transform="translate(1440.37890625,757.90234375)"/>
<path d="M0 0 C0.33 0 0.66 0 1 0 C3 7.625 3 7.625 3 11 C2.01 11.495 2.01 11.495 1 12 C0.53101037 14.8159849 0.53101037 14.8159849 0.375 18.0625 C0.30023437 19.16722656 0.22546875 20.27195312 0.1484375 21.41015625 C0.09945313 22.26480469 0.05046875 23.11945313 0 24 C-0.33 24 -0.66 24 -1 24 C-1.02901394 20.5625177 -1.04680335 17.12506688 -1.0625 13.6875 C-1.07087891 12.71103516 -1.07925781 11.73457031 -1.08789062 10.72851562 C-1.09111328 9.79072266 -1.09433594 8.85292969 -1.09765625 7.88671875 C-1.10551147 6.59060669 -1.10551147 6.59060669 -1.11352539 5.26831055 C-1 3 -1 3 0 0 Z " fill="#E7E7E4" transform="translate(1775,1008)"/>
<path d="M0 0 C1.796875 0.18359375 1.796875 0.18359375 4 1 C5.703125 3.28515625 5.703125 3.28515625 7.25 6.0625 C8.03117187 7.44115234 8.03117187 7.44115234 8.828125 8.84765625 C9.21484375 9.55792969 9.6015625 10.26820312 10 11 C8.02 11.99 8.02 11.99 6 13 C6 11.02 6 9.04 6 7 C3.03 6.505 3.03 6.505 0 6 C0 4.02 0 2.04 0 0 Z " fill="#DADAD9" transform="translate(1059,1084)"/>
<path d="M0 0 C9.57 0 19.14 0 29 0 C28.34 1.32 27.68 2.64 27 4 C26.23429687 3.68289063 25.46859375 3.36578125 24.6796875 3.0390625 C19.81623947 1.66573216 15.15574529 1.53860147 10.125 1.375 C9.15046875 1.33632813 8.1759375 1.29765625 7.171875 1.2578125 C4.7814328 1.16406967 2.39098756 1.0783617 0 1 C0 0.67 0 0.34 0 0 Z " fill="#121211" transform="translate(1406,783)"/>
<path d="M0 0 C-4 4 -8 8 -12 12 C-12.33 11.01 -12.66 10.02 -13 9 C-12.34 9 -11.68 9 -11 9 C-11 8.34 -11 7.68 -11 7 C-10.34 7 -9.68 7 -9 7 C-8.67 5.02 -8.34 3.04 -8 1 C-5.07175348 0.02391783 -3.04386724 -0.08226668 0 0 Z " fill="#CFCFCB" transform="translate(1088,392)"/>
<path d="M0 0 C-1.21934486 4.03321763 -2.55954927 7.54269479 -5 11 C-5.66 11 -6.32 11 -7 11 C-7.33 9.35 -7.66 7.7 -8 6 C-7.34 6 -6.68 6 -6 6 C-5.67 4.35 -5.34 2.7 -5 1 C-2 0 -2 0 0 0 Z " fill="#151615" transform="translate(1763,1068)"/>
<path d="M0 0 C0.66 0.33 1.32 0.66 2 1 C4.0374763 1.22858114 6.08040303 1.41024278 8.125 1.5625 C9.76855469 1.68818359 9.76855469 1.68818359 11.4453125 1.81640625 C12.28835938 1.87699219 13.13140625 1.93757813 14 2 C14 2.33 14 2.66 14 3 C5.42 3 -3.16 3 -12 3 C-12 2.34 -12 1.68 -12 1 C-10.95199219 1.01740234 -10.95199219 1.01740234 -9.8828125 1.03515625 C-8.97273438 1.04417969 -8.06265625 1.05320312 -7.125 1.0625 C-5.76761719 1.07990234 -5.76761719 1.07990234 -4.3828125 1.09765625 C-1.9831415 1.16249257 -1.9831415 1.16249257 0 0 Z " fill="#121212" transform="translate(1647,1137)"/>
<path d="M0 0 C0.99 0.33 1.98 0.66 3 1 C-0.80411834 4.91939465 -4.81576108 8.49102731 -9 12 C-8.38722388 9.03824877 -7.74627478 7.61941217 -6 5 C-5.34 5 -4.68 5 -4 5 C-3.566875 4.0409375 -3.566875 4.0409375 -3.125 3.0625 C-2 1 -2 1 0 0 Z " fill="#1D1E1D" transform="translate(1737,1102)"/>
<path d="M0 0 C3.45015205 4.60020273 3.22331682 6.88234832 2.6875 12.25 C2.62626953 12.99507812 2.56503906 13.74015625 2.50195312 14.5078125 C2.3492857 16.33982155 2.17660246 18.17014316 2 20 C1.34 20 0.68 20 0 20 C0 13.4 0 6.8 0 0 Z " fill="#0D0E0D" transform="translate(1555,508)"/>
<path d="M0 0 C0.99 0.33 1.98 0.66 3 1 C1.33333333 2.66666667 -0.33333333 4.33333333 -2 6 C-3.299375 7.3921875 -3.299375 7.3921875 -4.625 8.8125 C-7 11 -7 11 -10 11 C-9.67 9.68 -9.34 8.36 -9 7 C-8.34 7.33 -7.68 7.66 -7 8 C-6.34 6.35 -5.68 4.7 -5 3 C-4.01 3 -3.02 3 -2 3 C-1.34 2.01 -0.68 1.02 0 0 Z " fill="#EEEEEC" transform="translate(1524,788)"/>
<path d="M0 0 C0.99 0.66 1.98 1.32 3 2 C1.7934375 3.0828125 1.7934375 3.0828125 0.5625 4.1875 C-2.18507583 6.69517697 -2.18507583 6.69517697 -2.4375 9.5625 C-3 12 -3 12 -6.0625 14.3125 C-7.031875 14.869375 -8.00125 15.42625 -9 16 C-7.56691865 12.04093183 -5.66858051 8.71281819 -3.375 5.1875 C-2.74335937 4.21167969 -2.11171875 3.23585938 -1.4609375 2.23046875 C-0.73777344 1.12638672 -0.73777344 1.12638672 0 0 Z " fill="#212120" transform="translate(1065,416)"/>
<path d="M0 0 C1.28132813 0.00902344 2.56265625 0.01804687 3.8828125 0.02734375 C4.87023438 0.03894531 5.85765625 0.05054688 6.875 0.0625 C4.875 2.0625 4.875 2.0625 1.875 2.25 C-1.125 2.0625 -1.125 2.0625 -3.125 1.0625 C-3.455 1.7225 -3.785 2.3825 -4.125 3.0625 C-5.43415279 4.09395371 -6.76582143 5.09792166 -8.125 6.0625 C-8.455 4.4125 -8.785 2.7625 -9.125 1.0625 C-6.12186252 -0.43906874 -3.33432478 -0.03031204 0 0 Z " fill="#0A0B09" transform="translate(1384.125,835.9375)"/>
<path d="M0 0 C0.99 0.33 1.98 0.66 3 1 C3.8125 3.125 3.8125 3.125 4 6 C2.55576519 8.30107561 0.89127865 10.01646386 -1 12 C-1.66 11.34 -2.32 10.68 -3 10 C-2.64644564 7.73725212 -2.02455574 6.04911148 -1 4 C-0.34 4 0.32 4 1 4 C1 3.34 1 2.68 1 2 C0.34 1.67 -0.32 1.34 -1 1 C-0.67 0.67 -0.34 0.34 0 0 Z " fill="#EDEDEC" transform="translate(1510,796)"/>
<path d="M0 0 C0.66 0 1.32 0 2 0 C2 0.99 2 1.98 2 3 C3.32 3.33 4.64 3.66 6 4 C6 5.32 6 6.64 6 8 C3.36 6.68 0.72 5.36 -2 4 C-2 3.34 -2 2.68 -2 2 C-1.34 2 -0.68 2 0 2 C0 1.34 0 0.68 0 0 Z " fill="#171817" transform="translate(1101,1118)"/>
<path d="M0 0 C0.66 0.66 1.32 1.32 2 2 C-1.3 4.31 -4.6 6.62 -8 9 C-8.66 8.34 -9.32 7.68 -10 7 C-9.34 7 -8.68 7 -8 7 C-7.67 5.35 -7.34 3.7 -7 2 C-5.35 2.33 -3.7 2.66 -2 3 C-2 2.34 -2 1.68 -2 1 C-1.34 0.67 -0.68 0.34 0 0 Z " fill="#1C1D1C" transform="translate(1725,1113)"/>
<path d="M0 0 C1.80411967 2.75924185 2.0127245 3.88972103 1.625 7.25 C1.41875 8.1575 1.2125 9.065 1 10 C-0.65 9.67 -2.3 9.34 -4 9 C-4 8.34 -4 7.68 -4 7 C-3.34 7 -2.68 7 -2 7 C-2.226875 6.401875 -2.45375 5.80375 -2.6875 5.1875 C-2.790625 4.465625 -2.89375 3.74375 -3 3 C-1.5625 1.25 -1.5625 1.25 0 0 Z " fill="#E8E7E5" transform="translate(1724,378)"/>
<path d="M0 0 C6.27 0 12.54 0 19 0 C18.01 0.495 18.01 0.495 17 1 C17 1.66 17 2.32 17 3 C16.01 3 15.02 3 14 3 C14 2.34 14 1.68 14 1 C12.989375 1.37125 11.97875 1.7425 10.9375 2.125 C6.71280657 3.36654256 4.07062767 2.49533261 0 1 C0 0.67 0 0.34 0 0 Z " fill="#11110F" transform="translate(1446,783)"/>
<path d="M0 0 C-0.66 1.98 -1.32 3.96 -2 6 C-2.33 5.34 -2.66 4.68 -3 4 C-3.66 4 -4.32 4 -5 4 C-5 4.66 -5 5.32 -5 6 C-7.31 6.33 -9.62 6.66 -12 7 C-8.8380314 3.47318887 -4.98182478 0 0 0 Z " fill="#2B2B29" transform="translate(1108,380)"/>
<path d="M0 0 C0.598125 0.226875 1.19625 0.45375 1.8125 0.6875 C1.8125 1.3475 1.8125 2.0075 1.8125 2.6875 C0.8225 3.1825 0.8225 3.1825 -0.1875 3.6875 C-0.84305119 6.21483235 -0.84305119 6.21483235 -1.1875 8.6875 C-2.1775 8.3575 -3.1675 8.0275 -4.1875 7.6875 C-4.875 5.375 -4.875 5.375 -5.1875 2.6875 C-3.60587179 0.1901923 -2.97595617 -0.4251366 0 0 Z " fill="#D7D8D6" transform="translate(1745.1875,1099.3125)"/>
<path d="M0 0 C0.66 1.32 1.32 2.64 2 4 C0.75 6 0.75 6 -1 8 C-2.32 8 -3.64 8 -5 8 C-4.45773019 4.20411134 -2.79872437 2.52788007 0 0 Z " fill="#E9EAE8" transform="translate(1377,774)"/>
<path d="M0 0 C1.32 0.33 2.64 0.66 4 1 C4.66 3.31 5.32 5.62 6 8 C5.01 8.33 4.02 8.66 3 9 C2.34 8.67 1.68 8.34 1 8 C0.40644386 5.35139573 0.25790731 2.70802678 0 0 Z " fill="#171716" transform="translate(1760,435)"/>
<path d="M0 0 C1.15518918 0.90484792 2.29885406 1.8244206 3.4375 2.75 C4.07558594 3.26046875 4.71367188 3.7709375 5.37109375 4.296875 C7.18810554 6.19667629 7.60423197 7.43586908 8 10 C3.125 8.25 3.125 8.25 2 6 C1.649375 5.34 1.29875 4.68 0.9375 4 C0 2 0 2 0 0 Z M3 9 C5 10 5 10 5 10 Z " fill="#D6D7D7" transform="translate(1076,1103)"/>
<path d="M0 0 C2.3125 -0.3125 2.3125 -0.3125 5 0 C6.875 2.3125 6.875 2.3125 8 5 C7.67 5.99 7.34 6.98 7 8 C4.35247996 5.42215154 2.05567935 3.08351902 0 0 Z " fill="#D1D0CD" transform="translate(1743,406)"/>
<path d="M0 0 C0.99 0.99 1.98 1.98 3 3 C2.0479279 4.00596297 1.08812654 5.00461563 0.125 6 C-0.40867187 6.556875 -0.94234375 7.11375 -1.4921875 7.6875 C-3 9 -3 9 -5 9 C-4.67 7.68 -4.34 6.36 -4 5 C-3.34 5 -2.68 5 -2 5 C-1.34 3.35 -0.68 1.7 0 0 Z " fill="#272829" transform="translate(1549,595)"/>
<path d="M0 0 C2.61724095 2.36797991 4.32861729 4.89600354 6 8 C6 8.66 6 9.32 6 10 C5.01 9.67 4.02 9.34 3 9 C3 8.34 3 7.68 3 7 C2.34 7 1.68 7 1 7 C1 6.01 1 5.02 1 4 C0.34 4 -0.32 4 -1 4 C-0.67 2.68 -0.34 1.36 0 0 Z " fill="#1D1C1C" transform="translate(1756,424)"/>
<path d="M0 0 C2.62187494 1.04874998 3.79371361 1.64931313 5.25 4.125 C5.4975 4.74375 5.745 5.3625 6 6 C5.01 6.33 4.02 6.66 3 7 C1.68 5.68 0.36 4.36 -1 3 C-0.67 2.01 -0.34 1.02 0 0 Z " fill="#D5D4D1" transform="translate(1731,391)"/>
<path d="M0 0 C1.98 0.495 1.98 0.495 4 1 C4 1.66 4 2.32 4 3 C4.99 2.67 5.98 2.34 7 2 C7.33 3.32 7.66 4.64 8 6 C4.65626525 5.44271087 1.96687001 4.64826111 -1 3 C-0.67 2.01 -0.34 1.02 0 0 Z " fill="#DBDAD9" transform="translate(1699,372)"/>
<path d="M0 0 C6.4 -0.49230769 6.4 -0.49230769 9.4375 2 C10.2109375 2.99 10.2109375 2.99 11 4 C8 5 8 5 5.95703125 4.22265625 C5.24933594 3.83980469 4.54164062 3.45695312 3.8125 3.0625 C3.09707031 2.68222656 2.38164063 2.30195312 1.64453125 1.91015625 C1.10183594 1.60980469 0.55914063 1.30945312 0 1 C0 0.67 0 0.34 0 0 Z " fill="#202020" transform="translate(1108,1126)"/>
<path d="M0 0 C2.1640625 -0.29296875 2.1640625 -0.29296875 4.625 -0.1875 C5.44226562 -0.16042969 6.25953125 -0.13335937 7.1015625 -0.10546875 C8.04128906 -0.05326172 8.04128906 -0.05326172 9 0 C9 0.66 9 1.32 9 2 C5.26562152 2.87867729 1.83225427 3.08912219 -2 3 C-1.34 2.01 -0.68 1.02 0 0 Z " fill="#F2F3F2" transform="translate(1526,510)"/>
<path d="M0 0 C0.66 0.99 1.32 1.98 2 3 C0.35 4.65 -1.3 6.3 -3 8 C-3.66 7.67 -4.32 7.34 -5 7 C-3.75023244 3.34683329 -3.32901247 2.21934164 0 0 Z " fill="#D4D5D0" transform="translate(1071,404)"/>
<path d="M0 0 C0.66 0.66 1.32 1.32 2 2 C-0.40545638 3.20272819 -1.94996953 3.10071472 -4.625 3.0625 C-5.85089844 3.04896484 -5.85089844 3.04896484 -7.1015625 3.03515625 C-8.04128906 3.01775391 -8.04128906 3.01775391 -9 3 C-9.33 2.34 -9.66 1.68 -10 1 C-6.47940432 -0.17353189 -3.693507 -0.20146402 0 0 Z " fill="#080909" transform="translate(1184,1137)"/>
<path d="M0 0 C2.475 0.99 2.475 0.99 5 2 C2.04816899 4.95183101 -0.95511947 5.08663988 -5 6 C-4.67 5.01 -4.34 4.02 -4 3 C-1.9375 2.3125 -1.9375 2.3125 0 2 C0 1.34 0 0.68 0 0 Z " fill="#222321" transform="translate(1700,1126)"/>
<path d="M0 0 C3.16115776 1.36983503 3.9927092 1.9890638 6 5 C5.67 5.66 5.34 6.32 5 7 C2.525 6.01 2.525 6.01 0 5 C0 3.35 0 1.7 0 0 Z " fill="#D9DAD9" transform="translate(1070,1098)"/>
<path d="M0 0 C0.66 0 1.32 0 2 0 C2 0.66 2 1.32 2 2 C2.99 2 3.98 2 5 2 C6.75 4.3125 6.75 4.3125 8 7 C7.67 7.99 7.34 8.98 7 10 C5.83043409 8.52312468 4.66441854 7.04343707 3.5 5.5625 C2.8503125 4.73878906 2.200625 3.91507813 1.53125 3.06640625 C0 1 0 1 0 0 Z " fill="#1D1D1D" transform="translate(1066,1090)"/>
<path d="M0 0 C0.99 0 1.98 0 3 0 C2.01 3.3 1.02 6.6 0 10 C-0.66 9.67 -1.32 9.34 -2 9 C-1.41196203 5.97580475 -0.77321882 2.98241547 0 0 Z " fill="#1A1B1B" transform="translate(1764,1058)"/>
<path d="M0 0 C1.65 0.33 3.3 0.66 5 1 C3.35 2.98 1.7 4.96 0 7 C-0.66 6.67 -1.32 6.34 -2 6 C-1.49396008 3.83125748 -1.00016187 2.00032373 0 0 Z " fill="#ECEFED" transform="translate(1584,585)"/>
<path d="M0 0 C2.31 0 4.62 0 7 0 C7.33 0.99 7.66 1.98 8 3 C5.03 3 2.06 3 -1 3 C-0.67 2.01 -0.34 1.02 0 0 Z " fill="#080A08" transform="translate(1377,367)"/>
<path d="M0 0 C5.75 0.875 5.75 0.875 8 2 C7.67 3.32 7.34 4.64 7 6 C5.83054208 5.19152271 4.66449539 4.37810888 3.5 3.5625 C2.8503125 3.11003906 2.200625 2.65757813 1.53125 2.19140625 C1.0259375 1.79824219 0.520625 1.40507813 0 1 C0 0.67 0 0.34 0 0 Z " fill="#1A1A1A" transform="translate(1084,1110)"/>
<path d="M0 0 C-0.66 1.98 -1.32 3.96 -2 6 C-2.33 5.34 -2.66 4.68 -3 4 C-3.66 4 -4.32 4 -5 4 C-5 4.66 -5 5.32 -5 6 C-5.66 6 -6.32 6 -7 6 C-6.75 4.125 -6.75 4.125 -6 2 C-3.85331506 0.61504198 -2.56128588 0 0 0 Z " fill="#E6E7E5" transform="translate(1709,1127)"/>
<path d="M0 0 C0.66 0 1.32 0 2 0 C1.34 2.97 0.68 5.94 0 9 C-0.99 9 -1.98 9 -3 9 C-3 8.01 -3 7.02 -3 6 C-2.34 6 -1.68 6 -1 6 C-0.67 4.02 -0.34 2.04 0 0 Z " fill="#1F1F1F" transform="translate(1768,1048)"/>
<path d="M0 0 C0.66 0 1.32 0 2 0 C2 3.63 2 7.26 2 11 C1.34 10.67 0.68 10.34 0 10 C-0.89093449 6.35526801 -1.23666047 3.57257469 0 0 Z " fill="#0B0C0C" transform="translate(1346,843)"/>
<path d="M0 0 C0.33 0 0.66 0 1 0 C1.33 2.64 1.66 5.28 2 8 C2.66 8 3.32 8 4 8 C4 8.66 4 9.32 4 10 C3.01 10.495 3.01 10.495 2 11 C1.34444881 13.52733235 1.34444881 13.52733235 1 16 C0.67 16 0.34 16 0 16 C0 10.72 0 5.44 0 0 Z " fill="#E0E0E0" transform="translate(1349,655)"/>
<path d="M0 0 C1.45792884 -0.05399736 2.91642712 -0.09279177 4.375 -0.125 C5.18710938 -0.14820313 5.99921875 -0.17140625 6.8359375 -0.1953125 C9 0 9 0 11 2 C7.7 2.33 4.4 2.66 1 3 C0.67 2.01 0.34 1.02 0 0 Z " fill="#F5F5F5" transform="translate(1348,510)"/>
<path d="M0 0 C0.94875 0.04125 1.8975 0.0825 2.875 0.125 C2.215 1.445 1.555 2.765 0.875 4.125 C-1.105 3.465 -3.085 2.805 -5.125 2.125 C-3.125 0.125 -3.125 0.125 0 0 Z " fill="#0A0B09" transform="translate(1432.125,782.875)"/>
<path d="M0 0 C0.33 0 0.66 0 1 0 C1 3.63 1 7.26 1 11 C0.01 10.67 -0.98 10.34 -2 10 C-2 7.69 -2 5.38 -2 3 C-1.34 3 -0.68 3 0 3 C0 2.01 0 1.02 0 0 Z " fill="#0A0A08" transform="translate(1773,517)"/>
<path d="M0 0 C0.928125 0.20625 1.85625 0.4125 2.8125 0.625 C2.4825 1.615 2.1525 2.605 1.8125 3.625 C-0.8275 2.965 -3.4675 2.305 -6.1875 1.625 C-3.1875 -0.375 -3.1875 -0.375 0 0 Z " fill="#202020" transform="translate(1124.1875,1130.375)"/>
<path d="M0 0 C0.66 0.99 1.32 1.98 2 3 C0.68 4.32 -0.64 5.64 -2 7 C-2.99 6.34 -3.98 5.68 -5 5 C-3.35 3.35 -1.7 1.7 0 0 Z " fill="#D1D2CF" transform="translate(1735,1107)"/>
<path d="M0 0 C0.33 0.66 0.66 1.32 1 2 C1.99 2.33 2.98 2.66 4 3 C2.71034824 4.37562854 1.37310707 5.70766393 0 7 C-0.66 7 -1.32 7 -2 7 C-2.125 4.625 -2.125 4.625 -2 2 C-1.34 1.34 -0.68 0.68 0 0 Z " fill="#D6D7D4" transform="translate(1749,1092)"/>
<path d="M0 0 C0.99 0 1.98 0 3 0 C3.33 1.32 3.66 2.64 4 4 C4.66 4 5.32 4 6 4 C5.67 5.32 5.34 6.64 5 8 C2.74754119 5.31158141 1.11786042 3.35358125 0 0 Z " fill="#262626" transform="translate(1057,1076)"/>
<path d="M0 0 C2.72426311 2.35277269 3.8141763 4.62496331 5 8 C1.125 7.125 1.125 7.125 0 6 C-0.04080783 4.00041636 -0.04254356 1.99954746 0 0 Z " fill="#E6E6E6" transform="translate(1056,1076)"/>
<path d="M0 0 C3 3 3 3 3.25 5.4375 C3.1675 6.283125 3.085 7.12875 3 8 C2.01 8.66 1.02 9.32 0 10 C0 6.7 0 3.4 0 0 Z " fill="#F1F1F1" transform="translate(1467,800)"/>
<path d="M0 0 C0.625 1.875 0.625 1.875 1 4 C0.34 4.66 -0.32 5.32 -1 6 C-3.125 5.625 -3.125 5.625 -5 5 C-4.67 4.34 -4.34 3.68 -4 3 C-3.34 3 -2.68 3 -2 3 C-2 2.34 -2 1.68 -2 1 C-1.34 0.67 -0.68 0.34 0 0 Z " fill="#E1E1DD" transform="translate(1507,783)"/>
<path d="M0 0 C0.66 0 1.32 0 2 0 C2.33 3.3 2.66 6.6 3 10 C1.68 9.34 0.36 8.68 -1 8 C-0.67 5.36 -0.34 2.72 0 0 Z " fill="#D3D3D0" transform="translate(1772,454)"/>
<path d="M0 0 C-1 3 -1 3 -3.875 4.75 C-7 6 -7 6 -10 5 C-8.68 4.67 -7.36 4.34 -6 4 C-6 3.34 -6 2.68 -6 2 C-2.25 0 -2.25 0 0 0 Z " fill="#EFEFED" transform="translate(1107,378)"/>
<path d="M0 0 C2.31 0.33 4.62 0.66 7 1 C2.25 5 2.25 5 0 5 C0 3.35 0 1.7 0 0 Z " fill="#1F201F" transform="translate(1709,1121)"/>
<path d="M0 0 C1.65 0.99 3.3 1.98 5 3 C4.67 3.99 4.34 4.98 4 6 C3.34 6 2.68 6 2 6 C1.67 6.66 1.34 7.32 1 8 C-0.35439668 5.29120665 -0.06501451 2.99066732 0 0 Z " fill="#D3D2D1" transform="translate(1773,1027)"/>
<path d="M0 0 C1.5 1.25 1.5 1.25 3 3 C3 4.32 3 5.64 3 7 C2.01 7.33 1.02 7.66 0 8 C-0.79953138 4.71303767 -1.09658936 3.28976808 0 0 Z " fill="#F3F2F1" transform="translate(1350,706)"/>
<path d="M0 0 C2.31 0 4.62 0 7 0 C5.68 1.32 4.36 2.64 3 4 C1.68 3.34 0.36 2.68 -1 2 C-0.67 1.34 -0.34 0.68 0 0 Z " fill="#050909" transform="translate(1546,585)"/>
<path d="M0 0 C4.875 4.625 4.875 4.625 6 8 C5.01 8.33 4.02 8.66 3 9 C0 3.375 0 3.375 0 0 Z " fill="#1B1B19" transform="translate(1750,415)"/>
<path d="M0 0 C3.51005335 1.6380249 6.45543849 3.03134491 9 6 C6.03 5.505 6.03 5.505 3 5 C3 4.34 3 3.68 3 3 C2.01 2.67 1.02 2.34 0 2 C0 1.34 0 0.68 0 0 Z " fill="#252524" transform="translate(1717,385)"/>
<path d="M0 0 C0.99 0.66 1.98 1.32 3 2 C3 2.66 3 3.32 3 4 C0.36 3.67 -2.28 3.34 -5 3 C-4.360625 2.690625 -3.72125 2.38125 -3.0625 2.0625 C-1.06389179 1.1654837 -1.06389179 1.1654837 0 0 Z " fill="#262625" transform="translate(1138,1134)"/>
<path d="M0 0 C0.33 0.66 0.66 1.32 1 2 C1.66 2.33 2.32 2.66 3 3 C0.6875 4.5625 0.6875 4.5625 -2 6 C-2.99 5.67 -3.98 5.34 -5 5 C-3.35 3.35 -1.7 1.7 0 0 Z " fill="#E2E2E0" transform="translate(1501,788)"/>
<path d="M0 0 C0.99 0.33 1.98 0.66 3 1 C2.25 5.75 2.25 5.75 0 8 C0 5.36 0 2.72 0 0 Z " fill="#131312" transform="translate(1322,636)"/>
<path d="M0 0 C2.97 0 5.94 0 9 0 C7.68 1.32 6.36 2.64 5 4 C4.67 3.34 4.34 2.68 4 2 C2.68 1.34 1.36 0.68 0 0 Z " fill="#0C0D0C" transform="translate(1401,535)"/>
<path d="M0 0 C0.99 0.66 1.98 1.32 3 2 C2.67 3.32 2.34 4.64 2 6 C1.34 6 0.68 6 0 6 C-0.66 5.34 -1.32 4.68 -2 4 C-2 3.01 -2 2.02 -2 1 C-1.34 0.67 -0.68 0.34 0 0 Z " fill="#EAEBEA" transform="translate(1055,424)"/>
<path d="M0 0 C0.99 0 1.98 0 3 0 C2.67 1.32 2.34 2.64 2 4 C0.35 4.33 -1.3 4.66 -3 5 C-3 4.01 -3 3.02 -3 2 C-2.34 2 -1.68 2 -1 2 C-0.67 1.34 -0.34 0.68 0 0 Z " fill="#0E0E0D" transform="translate(1692,1129)"/>
<path d="M0 0 C1.2065625 0.0309375 1.2065625 0.0309375 2.4375 0.0625 C1.7775 2.0425 1.1175 4.0225 0.4375 6.0625 C0.1075 5.0725 -0.2225 4.0825 -0.5625 3.0625 C-1.5525 2.4025 -2.5425 1.7425 -3.5625 1.0625 C-2.5625 0.0625 -2.5625 0.0625 0 0 Z " fill="#E8E8E7" transform="translate(1102.5625,1124.9375)"/>
<path d="M0 0 C1.32 0 2.64 0 4 0 C5.75 2.5 5.75 2.5 7 5 C6.01 5 5.02 5 4 5 C1.8125 2.5 1.8125 2.5 0 0 Z " fill="#111211" transform="translate(1074,1100)"/>
<path d="M0 0 C0.66 0 1.32 0 2 0 C2 0.66 2 1.32 2 2 C2.99 2.33 3.98 2.66 5 3 C2.525 4.485 2.525 4.485 0 6 C0 4.02 0 2.04 0 0 Z " fill="#1D1D1B" transform="translate(1488,794)"/>
<path d="M0 0 C0.99 0 1.98 0 3 0 C2.625 2.9375 2.625 2.9375 2 6 C1.01 6.495 1.01 6.495 0 7 C0 4.69 0 2.38 0 0 Z " fill="#F3F3F0" transform="translate(1467,786)"/>
<path d="M0 0 C0.99 0 1.98 0 3 0 C2.74438677 2.3431213 2.40729228 4.67843403 2 7 C1.01 7.495 1.01 7.495 0 8 C0 5.36 0 2.72 0 0 Z " fill="#F4F6F5" transform="translate(1523,605)"/>
<path d="M0 0 C0 0.66 0 1.32 0 2 C-2.31 2.33 -4.62 2.66 -7 3 C-7.33 2.34 -7.66 1.68 -8 1 C-5.29120665 -0.35439668 -2.99066732 -0.06501451 0 0 Z " fill="#F4F3F4" transform="translate(1385,510)"/>
</svg>
